<svg version="1" xmlns="http://www.w3.org/2000/svg" width="1894.667" height="1894.667" viewBox="0 0 1421.000000 1421.000000"><path d="M690.7 25.6c-.1.1-6.3.5-13.7.8-13.1.7-17.4 1-29 2.1-10.6 1-16.5 1.6-18 2-.8.2-4.4.7-8 1-3.6.3-7.2.8-8 1-.8.2-3.5.7-6 1-2.5.3-6.7 1-9.5 1.5-6.9 1.3-10.4 1.9-14.5 2.6-1.9.3-10.4 2.1-18.7 4-18.9 4.3-18 4.1-22.8 5.4-2.2.6-5 1.3-6.2 1.5-4.1.9-25.8 7.4-36.5 10.9-42.5 14-87 33.7-125 55.5-2.1 1.1-5.3 2.9-7 4-20.2 11.4-60.4 38.8-78.4 53.4-8.2 6.7-17.9 14.7-22.9 19-3.2 2.9-7.7 6.8-9.9 8.7-15.7 13.6-41.8 40.1-61.1 62-31.3 35.5-65.4 85.4-88 128.6-2.6 4.9-5 9.3-5.4 9.9-.7.9-14.7 30.9-18.9 40.5-9.5 21.6-27.6 74-31.7 91.5-.4 1.6-.9 3.7-1.1 4.5-3.1 12.1-9.3 39.8-10.9 49-2.6 15.1-3.5 20.1-4 24-.3 2.5-.8 6.1-1.1 8-.2 1.9-.7 5.3-1 7.5-.2 2.2-.6 5.3-.9 7-.2 1.6-.7 6.4-1 10.5-.4 4.1-.8 8.6-1 9.9-1.8 11.4-2.6 78.1-1.1 100.1.8 13.5 1.6 22.6 2.1 27 .3 1.9 1.2 9.5 2.1 16.8.8 7.4 1.7 14.2 1.9 15.2.2 1 .7 4 1.1 6.7.3 2.6.8 5.7 1 6.8.2 1.1.7 3.6 1 5.5 1.4 8.1 5.6 28.9 6.9 34 .8 3 1.7 7 2 8.9.3 1.9.8 3.7 1 4.1.2.3.6 1.7.9 3.1 2.7 13 19.9 67.2 24.6 77.4.5 1.1 3.7 8.7 7.1 17 11.7 28.9 37.2 77.8 52.7 101.5 12.6 19.3 17.6 26.5 18.3 26.8.5.2.9.8.9 1.3 0 1.6 21.7 30.2 34.5 45.4 39.2 46.8 86.8 90.5 134 123 5.5 3.8 11.1 7.6 12.5 8.6 29.5 20.3 69.6 41.8 116.5 62.4 12.6 5.5 45 17 66.5 23.6 10.4 3.2 50.2 13.3 56.3 14.3 1.8.3 4.3.8 5.7 1.1 4.6 1 30.4 5.3 38 6.4 4.1.6 9.5 1.3 12 1.7 4.7.6 6.3.8 19.3 1.9 4.3.3 8.7.8 9.6 1 9 1.7 71.3 2.5 95.1 1.2 15.8-.9 44.8-3.8 53-5.2 1.4-.3 4.7-.7 7.4-1 2.7-.3 8.8-1.2 13.5-2.1 4.7-.8 10.1-1.7 12-2 1.9-.2 5.5-.9 8-1.5s5.7-1.3 7.1-1.5c1.4-.3 4.5-1 7-1.5 2.5-.6 5.4-1.3 6.5-1.5 1.1-.2 6.5-1.5 12-2.9s10.7-2.7 11.5-2.9c19.4-4.6 70.6-22.2 90.4-31 1.7-.8 7.2-3.3 12.3-5.5 60.7-26.8 123-67 174.8-112.6 9.8-8.7 48.1-46.6 54-53.5 5.2-6 16-18.5 16.5-19 .3-.3 2.2-2.6 4.3-5.2 2.1-2.6 4.3-5.3 5-6 .7-.7 3.2-4 5.7-7.3s4.7-6.2 5-6.5c.9-.8 13.2-17.8 19.6-27 10.3-14.8 20.7-31.4 33.7-54 4.8-8.3 21-40 25.5-50 3.3-7.4 14.4-33.4 14.6-34.5.2-.6.8-2.1 1.3-3.5 3.2-7.7 16-45 16.8-49 .2-.8 1.3-4.5 2.4-8.1 1.6-5.1 8.6-32.9 10.6-41.9 1.7-7.9 3.4-16.1 3.9-19 .3-1.9.8-4.6 1.1-6 .4-2.2 1-5.7 3-18 .2-1.4.7-4.5 1-7 .3-2.5.8-5.6 1-7 .2-1.4.7-5.2 1.1-8.5.3-3.3.8-6.9 1-7.9.2-1 .6-5.8.9-10.5.4-4.7.8-10.2 1-12.1 2.2-18.1 2.3-91.1.1-105.1-.3-1.3-.7-6.1-1.1-10.5-.3-4.5-.8-9.3-1-10.5-.2-1.3-.6-5.1-1-8.4-.7-6.6-1.3-11.4-2-16-.3-1.7-.7-4.8-1-7-.3-2.2-.8-5.1-1.1-6.5-.3-1.4-.8-4-1-5.9-.6-4.7-5.3-28.1-5.8-29-.2-.3-.7-2.4-1-4.6-.7-4.3-9.1-37.4-10.6-41.5-.4-1.4-2.7-8.6-5-16-2.2-7.4-4.5-14.4-5-15.5-.5-1.1-1.6-4-2.4-6.5-2.9-9.1-13.7-35.7-21.8-54-4.4-9.7-18.1-36.6-25.2-49.2-20-35.9-47.1-75.4-71.2-103.8-28.5-33.7-56.1-61.3-90.4-90.4-12.7-10.8-34.7-27.1-53.7-39.9-49.5-33.4-100.9-59.4-155.3-78.4-13.6-4.8-35.7-11.9-40-12.8-.8-.2-6.7-1.7-13-3.4-11.1-3-13.4-3.6-24.5-6.1-7.4-1.7-6.9-1.6-21-4.4-7.1-1.4-14.8-2.8-17-3.1-2.3-.3-5-.7-6.1-.9-1.2-.2-4.5-.7-7.4-1.1-2.9-.4-6-.8-6.9-1-.9-.1-4.3-.6-7.6-.9-3.3-.4-7.1-.9-8.5-1.1-1.4-.2-6.1-.6-10.5-1s-9.3-.8-11-1c-11.2-1.3-76.6-2.9-77.8-1.9zm15.4 97.3c0 .9.2 2.4.4 3.4.2.9.6 5.9.9 11 .4 5 .9 11 1.1 13.2.8 7.5 1.6 17 2.1 23.5.2 3.6.6 8.9.9 11.9.7 6.5 1.1 11.8 2 23.3.3 4.7.7 9.4.9 10.5.2 1 .7 6 1 11.1.4 5.1.9 10 1 11 .2.9.7 5.7 1.1 10.7.4 4.9.9 10.1 1 11.5.2 1.4.6 6.1 1 10.5s.8 8.1.9 8.2c.1.1 9.2-5.8 20.1-13.1 11-7.4 20.9-13.6 22-13.8 4.5-.7 2.3 4-11 24.1-7.4 11.3-13.4 20.5-13.2 20.7.1.1 4 .5 8.7.8 4.7.4 10.1.9 12 1.1 1.9.2 6.7.7 10.5 1 3.9.3 8.6.8 10.5 1 1.9.2 7.6.6 12.5 1 5 .3 10.6.8 12.5 1 1.9.2 6.9.6 11 1 4.1.3 9.5.7 12 1 2.5.2 7.7.7 11.5 1 3.9.3 9 .8 11.5 1 9.3.8 16.7 1.5 24 2 18 1.4 24.7 2.5 26.5 4.5 2.3 2.5.5 5.6-3.7 6.6-3.5.7-4.1.8-18.3 1.9-4.9.4-10.1.8-11.5 1-1.4.2-6.8.6-12 1-5.2.3-10.6.8-12 1-1.4.2-5.9.7-10 1-10.6.8-18.9 1.5-23.5 2-2.2.2-7.4.7-11.5 1-4.1.3-9.3.8-11.5 1-2.2.2-7.4.7-11.5 1-4.1.3-9.3.7-11.5 1-2.2.2-7.4.7-11.5 1-9.5.8-14.2 1.4-14.6 1.7-.1.2 5.7 9.3 13.1 20.3 7.4 11 13.4 20.8 13.5 21.8.1 4.4-3.5 2.7-23.6-10.8-11.2-7.6-20.6-13.6-20.9-13.4-.2.3-.6 3.8-1 7.9-.3 4.1-.8 9.3-1 11.5-.2 2.2-.7 7.1-1 11-.3 3.8-.8 8.3-1 10-.2 1.6-.7 6.6-1.1 11-.3 4.4-.8 9.6-.9 11.5-.2 1.9-.6 6.6-1 10.5-.3 3.8-.8 9.5-1 12.5-.3 3-.7 8.4-1 12-.3 3.6-.7 8.5-1 11-.2 2.5-.7 7.9-1 12-.4 4.1-.8 9.5-1.1 12-.2 2.5-.6 8.1-.9 12.5-.9 13.8-1.9 18.5-4 18.5-1.4 0-2.6-3.9-3-10-.2-1.9-.6-6.4-.9-10-.6-6.4-1.1-12-2.1-24-.8-9.9-1.5-18.2-2-23.5-.2-2.8-.7-8.2-1-12-1.8-22.3-3.1-36.3-4-44.5-.3-1.9-.7-6.9-1-11-.3-4.1-.8-8.9-1-10.5-.2-1.7-.7-6.4-1-10.5-.4-4.1-.9-7.7-1.1-7.9-.2-.2-3.5 1.8-7.4 4.5-3.8 2.7-9.4 6.5-12.4 8.4-2.9 1.9-8 5.3-11.2 7.5-8.5 5.7-11.3 7-12.5 5.8-1.7-1.7-.7-3.7 13-24.3 7.1-10.7 12.9-19.5 12.8-19.6-.4-.4-8.2-1.4-13.7-1.8-3-.3-8-.7-11-1-6.5-.6-14.9-1.4-24.5-2.1-3.8-.3-9-.8-11.5-1-2.5-.2-7.9-.7-12-1-4.1-.3-9.1-.8-11-1-1.9-.2-7.1-.6-11.5-1-4.4-.3-9.6-.8-11.5-1-1.9-.2-7.1-.7-11.5-1-4.4-.3-9.6-.8-11.5-1-1.9-.2-6.9-.7-11-1-19.6-1.6-21.4-2-22.8-5-.9-1.8-.7-2.6.6-3.8 2-1.9 4.7-2.4 16.7-3.2 5-.4 10.1-.8 11.5-1 1.4-.2 6.1-.7 10.5-1 4.4-.4 9.6-.8 11.5-1 1.9-.2 6.9-.6 11-1 4.1-.3 10-.8 13-1.1 3-.2 8-.7 11-.9 3-.3 7.8-.7 10.5-.9 2.8-.3 8.6-.8 13-1.1 4.4-.4 9.4-.8 11-1 2.7-.3 9.7-.9 22.5-2 10.4-.8 18.6-1.7 19.8-2.1.7-.2-3.7-7.8-11.9-20.1-7.3-10.8-13.4-20.4-13.6-21.3-.2-.9.2-2.2 1.1-2.9 1.2-1 4.9 1.1 22.2 12.8 11.5 7.7 20.9 13.9 21 13.8.1-.2 1.2-10.1 1.9-18.2 1.3-15.2 1.7-19 2-20.4.1-.9.6-6 1-11.5.3-5.4.8-10.6 1-11.5.1-.9.6-5.9 1-11.1.3-5.2.8-10.6 1-12 .2-1.4.6-6.3 1-11 .3-4.7.8-10.8 1-13.5.3-2.8.7-7.5 1-10.5.2-3 .7-8.7 1-12.5.6-6.7.8-9.5 2-22.9.3-3.2 1-6.8 1.7-7.9 1-2 1.1-2 2.4-.2.8 1 1.4 2.6 1.5 3.4zM526.2 523.6c22.6 8.7 43 15.4 65.8 21.5 10.2 2.7 19.6 5.2 21 5.4 2.9.6 4.2.8 13.5 2.8 6.8 1.5 20.9 4.2 27 5.1 7.6 1.2 13.8 2.2 20.5 3.1 1.4.2 5 .6 8 1 3 .3 7.1.8 9 1 6.7.8 14.9 1.6 33.5 3 32.5 2.5 94.1 2.5 127.5 0 1.9-.1 8-.6 13.5-1s11.3-.8 13-1c1.6-.2 6.1-.7 10-1 3.8-.4 8.1-.8 9.5-1 1.4-.2 5.4-.7 9-1 3.6-.4 8.3-1 10.5-1.4 2.2-.4 6.9-.8 10.5-.9 10.8-.3 12 1.7 12.5 21.8.4 13.9 1.8 33 3 39.1.2.9.7 3.9 1.1 6.6.3 2.6.8 5.7 1 6.8.2 1.1.6 3.1.9 4.5.4 2.1 3.2 15 5 22.6 3.6 15.6 14.2 42.8 24.9 64.1 5.9 11.8 6.6 14.7 4 15.7-.8.3-9.7-2.6-19.7-6.5-40.1-15.7-67.3-23.9-88.1-26.5-2.3-.3-5.2-.8-6.6-1-6.6-1.4-35.8-1.3-42.5 0-15.6 3.2-25.8 7.6-35 15.1-17.6 14.4-26.5 32.1-29.3 58.5-.8 7.8-.7 48.5.2 55.5.2 1.6.7 6.1 1 10 .4 3.8.9 8.1 1.1 9.5.5 2.7 1.1 7.8 2 14.9.3 2.3.7 4.6.9 5 .2.3.7 3.1 1 6.1.7 6 1.2 9 2.6 16.5.5 2.7 1.2 6.3 1.5 8 .2 1.6.9 5.5 1.5 8.5s1.3 7.1 1.6 9c.3 1.9 1.3 7.8 2.4 13 2.8 14.4 6.1 32.6 6.4 35.2.2 1.3 1.1 6.3 2.1 11.3.9 4.9 1.8 9.9 2 11 .1 1.1.6 3.8 1 6 1.3 7 1.5 7.9 2.5 14 .5 3.3 1.2 7.1 1.5 8.5.2 1.3.7 4 1 6 .5 3.4.7 4.6 1.9 11 .5 2.4 1.3 7.3 2.1 13 .2 1.4.9 5.6 1.5 9.5.7 3.8 1.4 7.9 1.5 9 .6 4.2 1.6 9.9 2 11.9.3 1.2.7 4.1 1 6.6.2 2.5.7 5.6.9 7 .3 1.4 1.2 7.8 2.1 14.2.9 6.5 1.8 12.6 2 13.7.2 1.1.6 4.4.9 7.3.4 2.9.8 6.2 1 7.3.3 1.8.7 5.2 2.1 17.5.3 2.5.7 6.1 1 8 .2 1.9.7 6.4 1 10 .4 3.6.8 7.6 1 9 .2 1.4.7 6.5 1 11.5.4 4.9.8 10.8 1 13 .2 2.2.6 8.5 1 14 1.2 19.7 1.5 25.1 2.1 32.8.8 11-1.8 13.3-9.9 8.4-2-1.2-13.9-8.3-26.5-15.9-12.5-7.5-24.5-14.6-26.7-15.8-2.2-1.3-5.3-3.1-7-4.1-1.6-1.1-3.7-2.2-4.5-2.6-.8-.4-3.5-1.9-6-3.3-2.5-1.5-7.4-4.2-11-6.2-3.6-2-8.5-4.7-11-6-13-7.1-19.5-10.6-41.5-21.6-27.8-14-28.1-14.3-27.1-24.5.3-3.4 1.2-11.4 2-17.7.8-6.3 1.8-14.2 2.1-17.5.3-3.3 1-9.4 1.5-13.5s1.2-10.4 1.5-14c.3-3.6.8-8.1 1-10 .5-3.8 1.2-11.7 2-22.5.3-3.9.7-9 1-11.5.2-2.5.7-9.9 1.1-16.5.3-6.6.8-14.9 1-18.5.4-7.7.5-69.8 0-75.5-.2-2.2-.6-9.6-1-16.5-.5-6.9-.9-13.9-1.1-15.5-.2-1.7-.7-6.2-1-10-.3-3.9-.8-8.1-1-9.5-.2-1.4-.7-4.8-1-7.5-1.1-10.3-1.6-14-2.1-15.5-.2-.8-.6-3.5-.9-6-.2-2.5-.7-5.6-1-7-.3-1.4-1-5.2-1.5-8.5-1.8-10.1-4-20.5-6.6-31.5-1.4-5.8-2.7-11.4-3-12.5-.2-1.1-1.5-6.1-2.9-11-1.4-5-2.8-9.7-3-10.5-2.1-8.7-11.1-36.3-13.9-42.7-14.2-33.3-39.2-48.3-81-48.6-12.6-.1-30 .9-31.5 1.7-.3.2-3.2.7-6.3 1-3.1.4-8.2 1.3-11.2 2.1s-6.5 1.6-7.8 1.9c-7.4 1.6-21.5 5.7-38.1 11.3-14.2 4.8-16.7 5-17.5 1-.2-.8 2-5 4.9-9.2 5-7.5 20.4-37.2 28.3-54.5 9.6-21.2 20.6-50.9 30.5-82 2.1-6.7 8.9-32.4 9.8-36.9.3-1.4.6-3.3.8-4.1.2-.8.4-1.8.4-2.1.2-1.5 4.4-5.9 5.7-5.9.7 0 9.2 3 18.6 6.6zM1419 1392c-.9 1.6-.8 2 .5 2 .8 0 1.5-.9 1.5-2s-.2-2-.5-2c-.2 0-.9.9-1.5 2z"/></svg>