<svg version="1" xmlns="http://www.w3.org/2000/svg" width="1821.333" height="1821.333" viewBox="0 0 1366.000000 1366.000000"><path d="M650.8.5c-.2.1-5.7.6-12.3.9-6.6.4-12.9.9-14 1.1-1.1.2-5.7.7-10.1 1-4.5.3-9.3.8-10.5 1-1.3.2-4.6.6-7.4 1-9 1.1-21 2.9-27.5 4-.8.1-3.5.6-6 1s-5.4.9-6.5 1.2c-1.1.2-3.1.6-4.5.9-1.4.2-3.6.7-5 1-1.4.3-3.4.8-4.5 1-9.9 1.9-13.7 2.8-18.2 4-2.9.9-6.4 1.7-7.9 2-14.3 2.6-67.4 19.7-87.9 28.4-1.6.7-3.9 1.6-5 2.1-34 13.8-72.9 33.9-105 54.2-7.1 4.5-35.5 23.7-36.5 24.7-.3.3-5.9 4.5-12.5 9.5-6.6 4.9-12.2 9.2-12.5 9.5-.3.3-4.5 3.9-9.5 8-37 30.7-73.1 67.6-100.9 103-13.9 17.8-31.5 42.9-43 61.5-4.7 7.7-9.1 14.7-9.6 15.5-1.2 2-8.7 15.2-11.8 21-27.9 51.1-51.4 112.7-63.8 167-.8 3.6-1.7 7.4-2 8.5-.7 2.8-5.3 26.2-6 30.4-.3 1.8-.7 4.1-.9 5-.1.9-.8 5.2-1.5 9.6-.6 4.4-1.3 9.1-1.6 10.5-.2 1.4-.6 5-1 8-.3 3-.7 6.6-.9 8-.3 1.4-.7 5.9-1.1 10-.3 4.1-.8 8.6-1 10-1.8 11.6-2.6 80.7-1.1 100.5 1.2 15.5 1.7 21.9 2.1 26 .3 2.2.7 6.8 1.1 10.2.3 3.4.7 7 .9 8 .2 1 .7 4.3 1.1 7.3 4.5 36 17.1 89.6 29.4 125 2.2 6.3 4.7 13.5 5.6 16 .9 2.5 2 5.4 2.4 6.5.5 1.1 2.1 5.1 3.6 9 1.5 3.8 3.2 8.3 4 10 8 18.7 11.9 27.3 18.4 40.5 8 16.6 25.6 48.3 32.1 58.1 2.2 3.3 4 6.2 4 6.4 0 1 28.2 41.9 30 43.5.3.3 3.2 4.1 6.5 8.5s6.2 8.2 6.5 8.5c.3.3 3.7 4.3 7.5 9 22.2 27.2 57 62.6 82.5 84 2.9 2.5 5.8 4.9 6.4 5.5.6.5 3.4 2.8 6.1 5 2.8 2.1 5.2 4.2 5.5 4.5 1.8 2.1 36 26.9 47.5 34.5 15.1 9.9 40.2 25.5 41.1 25.5.3 0 3.6 1.8 7.3 4 15.9 9.3 51.4 26.3 73.6 35.2 40.8 16.5 87.5 30.1 131 38.3 1.1.2 6.1 1.1 11 1.9 8.8 1.5 10.8 1.8 21 3.2 2.8.3 5.9.8 7 .9 26.2 3.7 48.7 5 86.5 4.9 17.3 0 36-.3 41.5-.7 5.5-.4 13.2-.9 17-1.2 6.8-.4 23.4-2.2 28.5-3 1.4-.2 4.8-.7 7.5-1 25.1-3.1 68.5-12.3 92.8-19.6 3.7-1.2 7.3-2.2 8-2.3 2.1-.4 19.1-5.6 21.2-6.6 1.1-.4 5.6-2.1 10-3.6 14.2-4.8 36.5-13.6 54.5-21.6 20.4-9.1 57.6-29 79.5-42.6 8.5-5.3 35.7-23.5 38-25.4.5-.5 5.1-3.9 10.2-7.6 5-3.7 10.5-7.9 12.2-9.5 1.7-1.5 3.5-2.7 4-2.7s1.1-.3 1.3-.8c.2-.4 3.9-3.6 8.3-7.2s8.2-6.8 8.5-7.1c.3-.3 2.8-2.5 5.5-4.9 9-7.6 28.6-26.3 41-39 15.8-16.2 22.3-23.4 34.2-37.5 2.3-2.8 5.1-6.1 6.3-7.5 5.1-5.8 28.5-37.6 37.2-50.5 9.3-13.8 29.6-47.1 29.8-49 .1-.6.8-1.7 1.5-2.5 1.9-2.1 21.2-41 27-54.5 2.6-6.1 5.6-12.9 6.6-15.2 9.9-22.3 27.3-76.9 32.4-101.3.1-.8.8-3.3 1.3-5.5.9-3.3 2.6-11.3 5.7-27 .9-4.5 5.4-33.4 6-38.5.3-3 .8-6.6 1-8 .7-5 2.1-21.2 3.3-38 1.4-20.8.6-86.6-1.2-98-.2-1.4-.7-6.4-1-11.1-.4-4.7-.9-9.7-1.1-11-.2-1.3-.6-4.2-.9-6.4-1.6-13.9-3.7-27.2-6.2-40-.9-4.4-1.7-8.9-1.9-10-.5-4-6.6-30.2-9.6-40.9-1.7-6.1-3.7-13.5-4.5-16.5-4.1-15.1-19.3-57.9-25.9-72.6-11.3-25.6-25.4-54.7-26.7-55.3-.5-.2-.8-.9-.8-1.5-.1-.7-2.9-6.2-6.5-12.2-3.5-6.1-8-13.9-10.1-17.5-6.8-11.9-26.6-41.1-38.9-57.6-10.4-13.7-29.3-37-34.5-42.4-.8-.9-3.2-3.6-5.4-6-7.5-8.6-29.4-30.6-42.7-43-17.9-16.6-18.4-17-36.7-31.8-31.5-25.3-63.5-46.6-100.7-67.2-7-3.9-43.2-22-44-22-.2 0-3.9-1.6-8.2-3.6-21.7-10.2-75.9-29.3-96.3-33.9-.8-.2-4.9-1.3-9-2.4-4.1-1.1-8.6-2.2-10-2.4-1.4-.3-5.2-1.2-8.5-2-3.3-.9-7.3-1.8-9-2.1-1.6-.2-5.5-.9-8.5-1.5s-6.6-1.3-8-1.6c-1.4-.3-4.7-.9-7.5-1.4-2.7-.6-6.8-1.3-9-1.6-2.2-.3-6.7-1-10-1.5S773 5.8 770 5.5c-3-.3-6.6-.8-8-1-1.4-.2-5.9-.7-10-1-4.1-.3-10-.8-13-1.1-3-.3-8-.8-11-1-5.9-.5-76.7-1.4-77.2-.9zm22.7 95.7c.3 1.3 1.6 16 3 32.8 3.1 36.8 10.3 116.6 11.1 123.2.4 2.7 1 4.8 1.4 4.8.4 0 9.9-6.1 20.9-13.6 12.8-8.6 20.8-13.4 21.8-13 .8.3 1.3 1.3 1 2-.3.8-6.5 10.3-13.6 21-7.2 10.8-13.1 20-13.1 20.4 0 1.2-.1 1.2 85.4 8.7 45.5 4 75.5 7 76.3 7.7 2.5 2.1 1.1 5.2-2.7 6.1-2.8.6-117 10.8-150.8 13.4-4 .3-7.5 1-7.8 1.5-.4.5 5 9.4 11.8 19.6 14.2 21.3 15.1 22.9 14.3 24.2-.9 1.5-5-.9-25.3-14.7-10.1-6.9-18.5-12.3-18.7-12.1-.8.7-4 35.4-13.1 141.3-.9 10.4-2 19.9-2.4 21-.7 1.9-.8 1.9-1.8-.5-.6-1.4-2.7-22.1-4.7-46-4-47.9-10.2-115.1-10.8-115.6-.2-.2-9.3 5.7-20.4 13.1-20.1 13.4-23.9 15.4-23.7 12.4.1-.8 6.1-10.4 13.3-21.3 7.5-11.1 13-20.4 12.7-21.2-.3-.8-1.3-1.4-2.3-1.4-7.4.1-155.3-13.5-157.3-14.4-3.2-1.4-3.7-4.2-1.1-5.6 1.2-.6 35.5-4 76.4-7.5 90-7.9 85-7.3 84.4-9.4-.2-.9-6.3-10.5-13.6-21.4-7.2-10.9-12.8-20.3-12.5-20.9 1.1-1.8 4-.2 23.8 13.2 10.8 7.3 19.9 13.1 20.2 12.8.6-.7 6-57.4 10.9-114.8 1.9-23.4 3.8-43.7 4.1-45.3.7-3.3 2.2-3.5 2.9-.5zM493.6 496.1c7.1 2.9 22.8 8.4 34.9 12.4 65.8 21.7 129.5 31.7 212 33.2 46.7.8 102.6-2.4 146-8.4 11.3-1.5 12.9-1.6 15.3-.2 4.2 2.3 5.2 5.4 5.2 16.4.1 49.6 13.6 103.9 37.2 149.7 2.8 5.3 4.7 10.1 4.3 10.7-1.2 2-4.3 1.1-24.3-6.8-47.2-18.7-75.4-25.8-107-26.8-19-.6-27.8.3-39.5 4.3-19.9 6.8-36.9 23.2-44.6 43.2-5.8 15-6.6 21.7-6.6 52.7.1 39.6 1.3 49.3 20 151.5 21.8 119.6 32.6 192.5 36.5 247 2.5 33.9 3.6 53.6 3.2 55.2-.7 2.9-3.9 3.1-8.5.5-2.3-1.3-13-7.7-23.7-14.2-34.7-21-63.8-37.2-98.5-54.6-18.7-9.4-35-18-36.1-19.1-1.2-1.1-2.4-3.1-2.7-4.4-.2-1.4.6-10.9 1.8-21.2 16.4-134.1 16.1-220.6-1.1-307.7-5-25.4-17-69.4-24.4-89.5-1.7-4.7-3.2-9-3.3-9.6-.2-.6-1-2.3-2-3.7-.9-1.5-1.7-2.9-1.7-3.3 0-1.8-9-13.6-14.2-18.7-10-9.5-22.7-15.9-38.8-19.4-12.7-2.7-44.1-2.4-60.5.6-17.1 3.1-33.5 7.4-52.5 13.8-24.3 8.1-26.1 7.6-18.1-4.4 2.9-4.3 9.6-16.6 15.1-27.3 24.4-48.5 40-89.9 52.5-140 2-8 4.1-15 4.7-15.7 1.9-2.3 6.3-1.4 19.4 3.8z"/></svg>